# xmcd CD database file
# Copyright (C) 1996 Ti Kan
#
# Track frame offsets:
#  150
#  15375
#  33922
#  54355
#  75632
#  88815
#  119985
#  132307
#  150857
#  163177
#  193612
#  210207
#  238247
#
# Disc length: 3462 seconds
#
# Revision: 1
# Processed by: cddbd v1.4b41PL1 Copyright (c) Steve Scherf et al.
# Submitted via: CDWizzard Release:4.13
#
DISCID=a20d840d
DTITLE=Michelle Willson - So Emotional
DYEAR=1900
DGENRE=
TTITLE0=Better Left Unsaid
TTITLE1=So Emotional
TTITLE2=Don't Worry Me Baby
TTITLE3=You're So Mean To Me
TTITLE4=The Girl Can't Help It
TTITLE5=Long John Blues
TTITLE6=Real Lovin' Mama, Real Lovin' Papa
TTITLE7=Girlfriend Says
TTITLE8=What Can I Do?
TTITLE9=My Heart Is Mended
TTITLE10=Lonely Teardrops
TTITLE11=Sexological Solution
TTITLE12=Strange Things Are Happening Everyday
EXTD=
EXTT0=
EXTT1=
EXTT2=
EXTT3=
EXTT4=
EXTT5=
EXTT6=
EXTT7=
EXTT8=
EXTT9=
EXTT10=
EXTT11=
EXTT12=
PLAYORDER=
